<svg xmlns="http://www.w3.org/2000/svg" viewBox="0 0 2600 2600"><defs><style>.cls-1{fill:#f26a21;}.cls-2{fill:#fff;}</style></defs><g id="Layer_2" data-name="Layer 2"><g id="Layer_1-2" data-name="Layer 1"><path class="cls-1" d="M1300,1300c481.18,0,901.29,261.43,1126.06,650C2536.68,1758.79,2600,1536.79,2600,1300,2600,582,2018,0,1300,0S0,582,0,1300c0,236.79,63.32,458.79,173.94,650C398.71,1561.43,818.82,1300,1300,1300Z"/><ellipse class="cls-2" cx="1300" cy="1950" rx="1126.06" ry="650"/><circle class="cls-2" cx="456" cy="1519" r="199.97"/><circle class="cls-1" cx="970" cy="1699" r="108"/><path class="cls-2" d="M2384.52,582.94c-8.46-10.79-18.33-31.56-34.14-49.06-122.84,136.73-287.05,295.26-458.77,417.23,71.46-217.37,164.8-423.92,279.23-616.34-30.61-24-60-55.34-92.94-76.44a3265.69,3265.69,0,0,0-228.59,362l.09-.26C1729.25,463.11,1612.27,237.38,1532.49,22c-15.37-3.64-20.79-4.53-36.33-7.29,75.1,262.51,173.67,506.64,304.87,697.85-98.14,195-177.94,401.67-234.67,614.75,70.71,15.31,147.9,37.29,213.19,64q24.85-134.79,59.93-265.42C2053.85,963.38,2238.34,751.82,2384.52,582.94Z"/><path class="cls-2" d="M211.69,585.35c8.46-10.79,18.33-31.55,34.14-49.05C368.67,673,532.88,831.55,704.61,953.52,633.14,736.15,539.8,529.61,425.37,337.18c30.61-24,60-55.33,92.94-76.44a3266.62,3266.62,0,0,1,228.59,362l-.09-.25C867,465.52,984,239.8,1063.72,24.41c15.37-3.63,20.79-4.53,36.33-7.29C1025,279.63,926.39,523.76,795.18,715c98.14,194.95,177.94,401.67,234.67,614.76-70.71,15.31-147.9,37.29-213.19,64q-24.85-134.79-59.93-265.43C542.36,965.79,357.87,754.24,211.69,585.35Z"/><circle class="cls-2" cx="2157" cy="1519" r="199.97"/><circle class="cls-1" cx="1637" cy="1699" r="108"/><circle class="cls-1" cx="1300" cy="2124" r="108"/></g></g></svg>