<svg xmlns="http://www.w3.org/2000/svg" viewBox="0 0 3276.77 612"><defs><style>.cls-1{fill:#f26a21;}</style></defs><g id="Layer_2" data-name="Layer 2"><g id="Layer_3" data-name="Layer 3"><path class="cls-1" d="M1512,72a180,180,0,1,0,180,180A180,180,0,0,0,1512,72Zm0,288a108,108,0,1,1,108-108A108,108,0,0,1,1512,360Z"/><path class="cls-1" d="M1944,72a180,180,0,0,0-180,179h0V431h72V252a108,108,0,0,1,216,0V431h72V251h0A180,180,0,0,0,1944,72Z"/><path class="cls-1" d="M3276.75,251c-.55-98.94-80.91-179-180-179a179.74,179.74,0,0,0-144.39,72.52A180,180,0,0,0,2628,251h0V431h72V252a108,108,0,0,1,216,0V431h72.77V252a108,108,0,0,1,216,0V431h72V251Z"/><path class="cls-1" d="M2376,431a180,180,0,0,0,180-179h0V72h-72V251a108,108,0,0,1-216,0V72h-72V252h0A180,180,0,0,0,2376,431Z"/><path class="cls-1" d="M180,72A180,180,0,0,0,0,252V612H72V396A180,180,0,1,0,180,72Zm0,288A108,108,0,1,1,288,252,108,108,0,0,1,180,360Z"/><path class="cls-1" d="M612,72A180,180,0,1,0,720,396v36h72V252A180,180,0,0,0,612,72Zm0,288A108,108,0,1,1,720,252,108,108,0,0,1,612,360Z"/><path class="cls-1" d="M1116,252V432h72V252a108,108,0,0,1,72-101.85V75.6A180.07,180.07,0,0,0,1116,252Z"/><path class="cls-1" d="M972,144h72V72H972V0H900V72H864v72h36V252a180.07,180.07,0,0,0,144,176.4V353.85A108,108,0,0,1,972,252V144Z"/></g></g></svg>