<svg xmlns="http://www.w3.org/2000/svg" width="15.783" height="18.421" viewBox="0 0 15.783 18.421">
  <g id="Union_1" data-name="Union 1" transform="translate(-293.108 -377.579)" fill="#707070">
    <path d="M 303.5002136230469 395.5 L 298.4999084472656 395.5 L 298.4999084472656 387.9999084472656 L 298.4999084472656 387.4999084472656 L 297.9999084472656 387.4999084472656 L 294.110107421875 387.4999084472656 C 293.8169555664062 387.4999084472656 293.6904602050781 387.2813110351562 293.6586608886719 387.2142944335938 C 293.6268310546875 387.1471557617188 293.5373840332031 386.9104309082031 293.7233581542969 386.6827392578125 L 300.6126098632812 378.2626342773438 C 300.7078857421875 378.1463623046875 300.8491516113281 378.0794982910156 300.9999389648438 378.0794982910156 C 301.1505126953125 378.0794982910156 301.2914428710938 378.1462097167969 301.3865661621094 378.2625427246094 L 308.2770385742188 386.6830749511719 C 308.4627380371094 386.9104309082031 308.373291015625 387.1471557617188 308.3414306640625 387.2142944335938 C 308.3096618652344 387.2813110351562 308.1831665039062 387.4999084472656 307.8900146484375 387.4999084472656 L 304.0002136230469 387.4999084472656 L 303.5002136230469 387.4999084472656 L 303.5002136230469 387.9999084472656 L 303.5002136230469 395.5 Z" stroke="none"/>
    <path d="M 303.0002136230469 395 L 303.0002136230469 387.9999084472656 L 303.0002136230469 386.9999084472656 L 304.0002136230469 386.9999084472656 L 307.8897399902344 386.9999084472656 C 307.8898010253906 386.9997863769531 307.8898620605469 386.9996337890625 307.8901062011719 386.9997253417969 L 300.9995727539062 378.5792541503906 L 294.110595703125 386.9990539550781 C 294.1104431152344 386.9992065429688 294.1103210449219 386.9993591308594 294.1101989746094 386.99951171875 C 294.1102600097656 386.9996337890625 294.1103210449219 386.9997863769531 294.1103820800781 386.9999084472656 L 297.9999084472656 386.9999084472656 L 298.9999084472656 386.9999084472656 L 298.9999084472656 387.9999084472656 L 298.9999084472656 395 L 303.0002136230469 395 M 304.0002136230469 396 L 297.9999084472656 396 L 297.9999084472656 387.9999084472656 L 294.110107421875 387.9999084472656 C 293.2668151855469 387.9999084472656 292.8023986816406 387.0198059082031 293.3361206054688 386.3664245605469 L 300.2256164550781 377.9460144042969 C 300.4258728027344 377.70166015625 300.7129516601562 377.5794982910156 300.9999389648438 377.5794982910156 C 301.2869262695312 377.5794982910156 301.5737915039062 377.70166015625 301.7736206054688 377.9460144042969 L 308.6640014648438 386.3664245605469 C 309.1976928710938 387.0198059082031 308.7333068847656 387.9999084472656 307.8900146484375 387.9999084472656 L 304.0002136230469 387.9999084472656 L 304.0002136230469 396 Z" stroke="none" fill="#707070"/>
  </g>
</svg>
