<svg xmlns="http://www.w3.org/2000/svg" width="14" height="24" viewBox="0 0 14 24">
  <g id="Group_1" data-name="Group 1" transform="translate(-1470 -368.714)">
    <g id="Polygon_3" data-name="Polygon 3" transform="translate(1484 386.714) rotate(180)" fill="#707070">
      <path d="M 12.5381498336792 17.49999618530273 L 1.461840033531189 17.49999618530273 C 1.294219970703125 17.49999618530273 1.143800020217896 17.42064666748047 1.049160003662109 17.28229713439941 C 0.9545199871063232 17.14394569396973 0.9350900053977966 16.97500610351562 0.9958400130271912 16.81877708435059 L 6.533989906311035 2.577806234359741 C 6.649020195007324 2.282026290893555 6.919760227203369 2.259036302566528 7 2.259036302566528 C 7.080239772796631 2.259036302566528 7.350969791412354 2.282026290893555 7.466000080108643 2.577806234359741 L 13.00415992736816 16.81877708435059 C 13.06490993499756 16.97500610351562 13.0454797744751 17.14394569396973 12.95083999633789 17.28229713439941 C 12.85620021820068 17.42064666748047 12.70578002929688 17.49999618530273 12.5381498336792 17.49999618530273 Z" stroke="none"/>
      <path d="M 6.999989986419678 2.759025573730469 L 6.999993801116943 2.759037017822266 C 6.999992847442627 2.759037017822266 6.999990940093994 2.759037017822266 6.999989986419678 2.759037017822266 L 1.46183967590332 16.99999618530273 L 12.53816032409668 17.0000057220459 L 6.999989986419678 2.759025573730469 M 6.999998569488525 1.759033203125 C 7.383355140686035 1.759033203125 7.766709804534912 1.971551895141602 7.932000160217285 2.396585464477539 L 13.47015953063965 16.6375560760498 C 13.72509002685547 17.29308700561523 13.24151992797852 17.99999618530273 12.5381498336792 17.99999618530273 L 1.46183967590332 17.99999618530273 C 0.7584800720214844 17.99999618530273 0.2749099731445312 17.29308700561523 0.5298404693603516 16.6375560760498 L 6.067989826202393 2.396585464477539 C 6.233284950256348 1.971551895141602 6.616642475128174 1.759033203125 6.999998569488525 1.759033203125 Z" stroke="none" fill="#707070"/>
    </g>
    <g id="Ellipse_5" data-name="Ellipse 5" transform="translate(1474 386.714)" fill="#707070" stroke="#707070" stroke-width="1">
      <circle cx="3" cy="3" r="3" stroke="none"/>
      <circle cx="3" cy="3" r="2.5" fill="none"/>
    </g>
  </g>
</svg>