<svg xmlns="http://www.w3.org/2000/svg" width="18.591" height="17.65" viewBox="0 0 18.591 17.65">
  <g id="Subtraction_2" data-name="Subtraction 2" fill="#fff">
    <path d="M 7.500460147857666 14.5 C 3.640389919281006 14.5 0.5 11.35960960388184 0.5 7.499539852142334 C 0.5 3.63998007774353 3.640389919281006 0.5 7.500460147857666 0.5 C 11.36001968383789 0.5 14.5 3.63998007774353 14.5 7.499539852142334 C 14.5 11.35960960388184 11.36001968383789 14.5 7.500460147857666 14.5 Z M 7.500460147857666 1.499760031700134 C 4.192150115966797 1.499760031700134 1.500640034675598 4.191249847412109 1.500640034675598 7.499539852142334 C 1.500640034675598 10.80784034729004 4.192150115966797 13.49932956695557 7.500460147857666 13.49932956695557 C 10.80875015258789 13.49932956695557 13.50024032592773 10.80784034729004 13.50024032592773 7.499539852142334 C 13.50024032592773 4.191249847412109 10.80875015258789 1.499760031700134 7.500460147857666 1.499760031700134 Z" stroke="none"/>
    <path d="M 7.500460147857666 14 C 9.868555068969727 14 11.94480991363525 12.72697257995605 13.08103179931641 10.82906055450439 C 11.94469833374023 12.72648620605469 9.868422508239746 13.99932956695557 7.500460147857666 13.99932956695557 C 3.916450023651123 13.99932956695557 1.000640034675598 11.08353996276855 1.000640034675598 7.499539852142334 C 1.000640034675598 5.150171756744385 2.253666162490845 3.087874889373779 4.126430034637451 1.945858716964722 C 2.253192186355591 3.087767124176025 1 5.150038242340088 1 7.499539852142334 C 1 11.08390998840332 3.91609001159668 14 7.500460147857666 14 M 7.500460147857666 15 C 3.364690065383911 15 -8.881784197001252e-16 11.63531970977783 -8.881784197001252e-16 7.499539852142334 C -8.881784197001252e-16 3.364289999008179 3.364690065383911 -8.881784197001252e-16 7.500460147857666 -8.881784197001252e-16 C 11.63570976257324 -8.881784197001252e-16 15 3.364289999008179 15 7.499539852142334 C 15 11.63531970977783 11.63570976257324 15 7.500460147857666 15 Z M 7.500460147857666 1.999760031700134 C 4.467870235443115 1.999760031700134 2.000639915466309 4.466949939727783 2.000639915466309 7.499539852142334 C 2.000639915466309 10.53217029571533 4.467870235443115 12.99932956695557 7.500460147857666 12.99932956695557 C 10.53304958343506 12.99932956695557 13.00024032592773 10.53217029571533 13.00024032592773 7.499539852142334 C 13.00024032592773 4.466949939727783 10.53304958343506 1.999760031700134 7.500460147857666 1.999760031700134 Z" stroke="none" fill="#707070"/>
  </g>
  <g id="Rectangle_6" data-name="Rectangle 6" transform="matrix(0.719, 0.695, -0.695, 0.719, 13.556, 10.629)" fill="#707070" stroke="#707070" stroke-width="1">
    <path d="M.75,0H5.5A1.5,1.5,0,0,1,7,1.5v0A1.5,1.5,0,0,1,5.5,3H.75A.75.75,0,0,1,0,2.25V.75A.75.75,0,0,1,.75,0Z" stroke="none"/>
    <path d="M.833.5H5.5a1,1,0,0,1,1,1v0a1,1,0,0,1-1,1H.833A.333.333,0,0,1,.5,2.167V.833A.333.333,0,0,1,.833.5Z" fill="none"/>
  </g>
</svg>
